<?xml version="1.0" encoding="UTF-8" standalone="no"?>
<svg xmlns="http://www.w3.org/2000/svg" width="40" height="40" viewBox="0 0 40 40">
  <!-- Wooden crate background with rounded corners -->
  <rect x="2" y="2" width="36" height="36" rx="8" ry="8" fill="#a0522d" stroke="#8b4513" stroke-width="2" />
  
  <!-- Wood grain lines (curved to follow rounded shape) -->
  <path d="M 2 10 C 6 10, 34 10, 38 10" stroke="#8b4513" stroke-width="1" fill="none" />
  <path d="M 2 20 C 6 20, 34 20, 38 20" stroke="#8b4513" stroke-width="1" fill="none" />
  <path d="M 2 30 C 6 30, 34 30, 38 30" stroke="#8b4513" stroke-width="1" fill="none" />
  
  <path d="M 10 2 C 10 6, 10 34, 10 38" stroke="#8b4513" stroke-width="1" fill="none" />
  <path d="M 20 2 C 20 6, 20 34, 20 38" stroke="#8b4513" stroke-width="1" fill="none" />
  <path d="M 30 2 C 30 6, 30 34, 30 38" stroke="#8b4513" stroke-width="1" fill="none" />
  
  <!-- Center circle indicating multi-push capability -->
  <circle cx="20" cy="20" r="7" fill="#8b4513" stroke="#8b4513" stroke-width="1" />
  <circle cx="20" cy="20" r="5" fill="#a0522d" stroke="#8b4513" stroke-width="1" />
  <!--
  
  <polygon points="20,5 16,12 24,12" fill="#ffffff" stroke="#000000" stroke-width="1" />
  <line x1="20" y1="12" x2="20" y2="16" stroke="#ffffff" stroke-width="2" />
  <line x1="20" y1="12" x2="20" y2="16" stroke="#000000" stroke-width="1" />
  
  <polygon points="35,20 28,16 28,24" fill="#ffffff" stroke="#000000" stroke-width="1" />
  <line x1="28" y1="20" x2="24" y2="20" stroke="#ffffff" stroke-width="2" />
  <line x1="28" y1="20" x2="24" y2="20" stroke="#000000" stroke-width="1" />
  
  <polygon points="20,35 24,28 16,28" fill="#ffffff" stroke="#000000" stroke-width="1" />
  <line x1="20" y1="28" x2="20" y2="24" stroke="#ffffff" stroke-width="2" />
  <line x1="20" y1="28" x2="20" y2="24" stroke="#000000" stroke-width="1" />
  
  <polygon points="5,20 12,24 12,16" fill="#ffffff" stroke="#000000" stroke-width="1" />
  <line x1="12" y1="20" x2="16" y2="20" stroke="#ffffff" stroke-width="2" />
  <line x1="12" y1="20" x2="16" y2="20" stroke="#000000" stroke-width="1" />
  -->
</svg>