<?xml version="1.0" encoding="UTF-8" standalone="no"?>
<svg xmlns="http://www.w3.org/2000/svg" width="64" height="64" viewBox="0 0 64 64">
  <g>
    <rect width="64" height="64" fill="#C8C8C8"/>
    <line x1="0" y1="0" x2="64" y2="0" stroke="#D8D8D8" stroke-width="1"/>
    <line x1="0" y1="16" x2="64" y2="16" stroke="#D8D8D8" stroke-width="1"/>
    <line x1="0" y1="32" x2="64" y2="32" stroke="#D8D8D8" stroke-width="1"/>
    <line x1="0" y1="48" x2="64" y2="48" stroke="#D8D8D8" stroke-width="1"/>
    <line x1="0" y1="64" x2="64" y2="64" stroke="#D8D8D8" stroke-width="1"/>
    <line x1="0" y1="0" x2="0" y2="64" stroke="#D8D8D8" stroke-width="1"/>
    <line x1="16" y1="0" x2="16" y2="64" stroke="#D8D8D8" stroke-width="1"/>
    <line x1="32" y1="0" x2="32" y2="64" stroke="#D8D8D8" stroke-width="1"/>
    <line x1="48" y1="0" x2="48" y2="64" stroke="#D8D8D8" stroke-width="1"/>
    <line x1="64" y1="0" x2="64" y2="64" stroke="#D8D8D8" stroke-width="1"/>
  </g>
  
  <rect x="8" y="4" width="48" height="56" fill="#8b4513" stroke="#5e2605" stroke-width="2" />
  
  <rect x="12" y="8" width="40" height="48" fill="#a0522d" stroke="#6b3511" stroke-width="2" />
  
  <rect x="16" y="12" width="32" height="20" fill="#8b4513" stroke="#6b3511" stroke-width="1" />
  <rect x="16" y="36" width="32" height="16" fill="#8b4513" stroke="#6b3511" stroke-width="1" />
  
  <circle cx="46" cy="32" r="4" fill="#daa520" stroke="#8b6914" stroke-width="1" />
  
  <rect x="44" y="32" width="6" height="2" fill="#daa520" transform="rotate(90 46 32)" />
  
  <circle cx="20" cy="32" r="5" fill="#111111" stroke="#222222" stroke-width="1" />
</svg>